<svg width="32" height="32" viewBox="0 0 32 32" fill="none" xmlns="http://www.w3.org/2000/svg">
  <!-- Background circle with gradient -->
  <defs>
    <linearGradient id="bgGradient" x1="0%" y1="0%" x2="100%" y2="100%">
      <stop offset="0%" style="stop-color:#1F2937;stop-opacity:1" />
      <stop offset="100%" style="stop-color:#111827;stop-opacity:1" />
    </linearGradient>
    <linearGradient id="accentGradient" x1="0%" y1="0%" x2="100%" y2="100%">
      <stop offset="0%" style="stop-color:#3B82F6;stop-opacity:1" />
      <stop offset="100%" style="stop-color:#1D4ED8;stop-opacity:1" />
    </linearGradient>
    <filter id="glow" x="-50%" y="-50%" width="200%" height="200%">
      <feGaussianBlur stdDeviation="2" result="coloredBlur"/>
      <feMerge> 
        <feMergeNode in="coloredBlur"/>
        <feMergeNode in="SourceGraphic"/>
      </feMerge>
    </filter>
  </defs>
  
  <!-- Main background circle -->
  <circle cx="16" cy="16" r="15" fill="url(#bgGradient)" stroke="#374151" stroke-width="1"/>
  
  <!-- Tech circuit lines -->
  <path d="M8 12 L12 12 L12 8" stroke="#6B7280" stroke-width="1" stroke-linecap="round" opacity="0.6"/>
  <path d="M20 8 L24 8 L24 12" stroke="#6B7280" stroke-width="1" stroke-linecap="round" opacity="0.6"/>
  <path d="M8 20 L12 20 L12 24" stroke="#6B7280" stroke-width="1" stroke-linecap="round" opacity="0.6"/>
  <path d="M20 24 L24 24 L24 20" stroke="#6B7280" stroke-width="1" stroke-linecap="round" opacity="0.6"/>
  
  <!-- Main "P" letter with modern tech style -->
  <path d="M12 8 L12 24 M12 8 L20 8 L20 16 L12 16" 
        stroke="url(#accentGradient)" 
        stroke-width="2.5" 
        stroke-linecap="round" 
        stroke-linejoin="round"
        filter="url(#glow)"/>
  
  <!-- Tech accent dots -->
  <circle cx="10" cy="10" r="1" fill="#3B82F6" opacity="0.8"/>
  <circle cx="22" cy="10" r="1" fill="#3B82F6" opacity="0.8"/>
  <circle cx="10" cy="22" r="1" fill="#3B82F6" opacity="0.8"/>
  <circle cx="22" cy="22" r="1" fill="#3B82F6" opacity="0.8"/>
  
  <!-- Inner tech grid pattern -->
  <path d="M14 12 L18 12" stroke="#6B7280" stroke-width="0.5" opacity="0.4"/>
  <path d="M14 14 L18 14" stroke="#6B7280" stroke-width="0.5" opacity="0.4"/>
  <path d="M14 16 L18 16" stroke="#6B7280" stroke-width="0.5" opacity="0.4"/>
  <path d="M14 18 L18 18" stroke="#6B7280" stroke-width="0.5" opacity="0.4"/>
  
  <!-- Corner tech accents -->
  <path d="M6 6 L8 6 L8 8" stroke="#3B82F6" stroke-width="1" stroke-linecap="round" opacity="0.7"/>
  <path d="M26 6 L24 6 L24 8" stroke="#3B82F6" stroke-width="1" stroke-linecap="round" opacity="0.7"/>
  <path d="M6 26 L8 26 L8 24" stroke="#3B82F6" stroke-width="1" stroke-linecap="round" opacity="0.7"/>
  <path d="M26 26 L24 26 L24 24" stroke="#3B82F6" stroke-width="1" stroke-linecap="round" opacity="0.7"/>
</svg>
